<svg width="3517" height="1184" viewBox="0 0 3517 1184" fill="none" xmlns="http://www.w3.org/2000/svg">
<path d="M3486.43 19L3512.96 31.3205C3514.4 32.1489 3516.43 30.9774 3516.43 29.3205V2.67949C3516.43 1.02264 3514.4 -0.148932 3512.96 0.679495L3486.43 13V19ZM0.425784 1168C0.425784 1176.84 7.58923 1184 16.4258 1184C25.2623 1184 32.4258 1176.84 32.4258 1168C32.4258 1159.16 25.2623 1152 16.4258 1152C7.58923 1152 0.425784 1159.16 0.425784 1168ZM3489.43 13H1575.38V19H3489.43V13ZM1172.38 416V768H1178.38V416H1172.38ZM775.383 1165H16.4258V1171H775.383V1165ZM1172.38 768C1172.38 987.257 994.64 1165 775.383 1165V1171C997.954 1171 1178.38 990.571 1178.38 768H1172.38ZM1575.38 13C1352.81 13 1172.38 193.429 1172.38 416H1178.38C1178.38 196.743 1356.13 19 1575.38 19V13Z" fill="url(#paint0_linear_107_183)"/>
<defs>
<linearGradient id="paint0_linear_107_183" x1="2320" y1="592" x2="5824" y2="592" gradientUnits="userSpaceOnUse">
<stop stop-color="#58FFB4"/>
<stop offset="0.165" stop-color="#CAC6DD" stop-opacity="0.101961"/>
<stop offset="0.64" stop-color="#CAC6DD" stop-opacity="0.101961"/>
</linearGradient>
</defs>
</svg>
