<svg width="3520" height="1184" viewBox="0 0 3520 1184" fill="none" xmlns="http://www.w3.org/2000/svg">
<path d="M30.0078 13.001L3.47191 0.680471C2.03704 -0.147956 0.0078125 1.02362 0.0078125 2.68047V29.3215C0.0078125 30.9783 2.03704 32.1499 3.47191 31.3215L30.0078 19.001V13.001ZM3487.99 1168C3487.99 1176.84 3495.16 1184 3503.99 1184C3512.83 1184 3519.99 1176.84 3519.99 1168C3519.99 1159.16 3512.83 1152 3503.99 1152C3495.16 1152 3487.99 1159.16 3487.99 1168ZM27.0078 19.001H1352V13.001H27.0078V19.001ZM1749 416.001V768H1755V416.001H1749ZM2152 1171H3503.99V1165H2152V1171ZM1749 768C1749 990.571 1929.43 1171 2152 1171V1165C1932.74 1165 1755 987.257 1755 768H1749ZM1352 19.001C1571.26 19.001 1749 196.744 1749 416.001H1755C1755 193.43 1574.57 13.001 1352 13.001V19.001Z" fill="url(#paint0_linear_107_183)"/>
<defs>
<linearGradient id="paint0_linear_107_183" x1="0.0078125" y1="592.001" x2="3504.01" y2="592.001" gradientUnits="userSpaceOnUse">
<stop stop-color="#58FFB4"/>
<stop offset="0.77" stop-color="#CAC6DD" stop-opacity="0.101961"/>
</linearGradient>
</defs>
</svg>
